<svg width="118" height="118" viewBox="0 0 118 118" fill="none" xmlns="http://www.w3.org/2000/svg">
<g filter="url(#filter0_d_1_520)">
<circle cx="59" cy="58" r="50" fill="#FFEBB0" fill-opacity="0.8" shape-rendering="crispEdges"/>
</g>
<path d="M48.1423 36.2852H40.9042C39.9444 36.2852 39.0239 36.6664 38.3452 37.3452C37.6664 38.0239 37.2852 38.9444 37.2852 39.9042V79.7137C37.2852 80.6736 37.6664 81.5941 38.3452 82.2728C39.0239 82.9515 39.9444 83.3328 40.9042 83.3328H77.0947C78.0545 83.3328 78.975 82.9515 79.6537 82.2728C80.3324 81.5941 80.7137 80.6736 80.7137 79.7137V39.9042C80.7137 38.9444 80.3324 38.0239 79.6537 37.3452C78.975 36.6664 78.0545 36.2852 77.0947 36.2852H69.8566" stroke="#8F6D09" stroke-width="2" stroke-linecap="round" stroke-linejoin="round"/>
<path d="M48.1426 61.6203L55.3807 68.8584L73.4759 50.7632M51.7616 32.668H66.2378C67.1976 32.668 68.1182 33.0493 68.7969 33.728C69.4756 34.4067 69.8569 35.3272 69.8569 36.287C69.8569 37.2468 69.4756 38.1674 68.7969 38.8461C68.1182 39.5248 67.1976 39.9061 66.2378 39.9061H51.7616C50.8018 39.9061 49.8813 39.5248 49.2026 38.8461C48.5239 38.1674 48.1426 37.2468 48.1426 36.287C48.1426 35.3272 48.5239 34.4067 49.2026 33.728C49.8813 33.0493 50.8018 32.668 51.7616 32.668Z" stroke="#8F6D09" stroke-width="2" stroke-linecap="round" stroke-linejoin="round"/>
<defs>
<filter id="filter0_d_1_520" x="0.7" y="0.7" width="116.6" height="116.6" filterUnits="userSpaceOnUse" color-interpolation-filters="sRGB">
<feFlood flood-opacity="0" result="BackgroundImageFix"/>
<feColorMatrix in="SourceAlpha" type="matrix" values="0 0 0 0 0 0 0 0 0 0 0 0 0 0 0 0 0 0 127 0" result="hardAlpha"/>
<feOffset dy="1"/>
<feGaussianBlur stdDeviation="4.15"/>
<feComposite in2="hardAlpha" operator="out"/>
<feColorMatrix type="matrix" values="0 0 0 0 0 0 0 0 0 0 0 0 0 0 0 0 0 0 0.1 0"/>
<feBlend mode="normal" in2="BackgroundImageFix" result="effect1_dropShadow_1_520"/>
<feBlend mode="normal" in="SourceGraphic" in2="effect1_dropShadow_1_520" result="shape"/>
</filter>
</defs>
</svg>
