<svg width="118" height="118" viewBox="0 0 118 118" fill="none" xmlns="http://www.w3.org/2000/svg">
<g filter="url(#filter0_d_1_511)">
<circle cx="59" cy="58" r="50" fill="#FFEBB0" fill-opacity="0.8" shape-rendering="crispEdges"/>
</g>
<path d="M33.668 43.5233H77.0965C79.0162 43.5233 80.8572 44.2858 82.2146 45.6432C83.5721 47.0006 84.3346 48.8417 84.3346 50.7613V72.4756C84.3346 74.3953 83.5721 76.2363 82.2146 77.5937C80.8572 78.9511 79.0162 79.7137 77.0965 79.7137H40.9061C38.9864 79.7137 37.1454 78.9511 35.788 77.5937C34.4306 76.2363 33.668 74.3953 33.668 72.4756V43.5233ZM33.668 43.5233H73.4775V39.9042C73.4775 38.9444 73.0962 38.0239 72.4175 37.3452C71.7388 36.6664 70.8183 36.2852 69.8584 36.2852H37.287C36.3272 36.2852 35.4067 36.6664 34.728 37.3452C34.0493 38.0239 33.668 38.9444 33.668 39.9042V43.5233Z" stroke="#8F6D09" stroke-width="2" stroke-linecap="round" stroke-linejoin="round"/>
<path d="M73.4784 65.2381C75.4772 65.2381 77.0975 63.6178 77.0975 61.619C77.0975 59.6203 75.4772 58 73.4784 58C71.4797 58 69.8594 59.6203 69.8594 61.619C69.8594 63.6178 71.4797 65.2381 73.4784 65.2381Z" fill="#8F6D09"/>
<defs>
<filter id="filter0_d_1_511" x="0.7" y="0.7" width="116.6" height="116.6" filterUnits="userSpaceOnUse" color-interpolation-filters="sRGB">
<feFlood flood-opacity="0" result="BackgroundImageFix"/>
<feColorMatrix in="SourceAlpha" type="matrix" values="0 0 0 0 0 0 0 0 0 0 0 0 0 0 0 0 0 0 127 0" result="hardAlpha"/>
<feOffset dy="1"/>
<feGaussianBlur stdDeviation="4.15"/>
<feComposite in2="hardAlpha" operator="out"/>
<feColorMatrix type="matrix" values="0 0 0 0 0 0 0 0 0 0 0 0 0 0 0 0 0 0 0.1 0"/>
<feBlend mode="normal" in2="BackgroundImageFix" result="effect1_dropShadow_1_511"/>
<feBlend mode="normal" in="SourceGraphic" in2="effect1_dropShadow_1_511" result="shape"/>
</filter>
</defs>
</svg>
