<svg width="1406" height="817" viewBox="0 0 1406 817" fill="none" xmlns="http://www.w3.org/2000/svg">
<path d="M0 0C47.9325 5.71589e-07 95.3956 9.44101 139.679 27.784C183.963 46.1269 224.201 73.0127 258.094 106.906C291.987 140.799 318.873 181.037 337.216 225.321C355.559 269.604 365 317.068 365 365L0 365V0Z" fill="#FFB13D"/>
<path d="M27 412C27 374.074 42.066 337.701 68.8837 310.884C95.7014 284.066 132.074 269 170 269V412L27 412Z" fill="#FFF3E1"/>
<mask id="path-3-inside-1_1_463" fill="white">
<path d="M186 569C167.221 569 148.626 565.301 131.276 558.115C113.927 550.928 98.1625 540.395 84.8837 527.116C71.6049 513.837 61.0716 498.073 53.8852 480.724C46.6988 463.374 43 444.779 43 426C43 407.221 46.6988 388.626 53.8852 371.276C61.0717 353.927 71.605 338.162 84.8838 324.884C98.1626 311.605 113.927 301.072 131.276 293.885C148.626 286.699 167.221 283 186 283L186 426V569Z"/>
</mask>
<path d="M186 569C167.221 569 148.626 565.301 131.276 558.115C113.927 550.928 98.1625 540.395 84.8837 527.116C71.6049 513.837 61.0716 498.073 53.8852 480.724C46.6988 463.374 43 444.779 43 426C43 407.221 46.6988 388.626 53.8852 371.276C61.0717 353.927 71.605 338.162 84.8838 324.884C98.1626 311.605 113.927 301.072 131.276 293.885C148.626 286.699 167.221 283 186 283L186 426V569Z" stroke="#D79127" stroke-width="10" mask="url(#path-3-inside-1_1_463)"/>
<mask id="path-4-inside-2_1_463" fill="white">
<path d="M186 668C138.137 668 91.3487 653.807 51.552 627.216C11.7553 600.624 -19.2625 562.829 -37.5789 518.609C-55.8953 474.39 -60.6877 425.732 -51.35 378.788C-42.0124 331.845 -18.9641 288.724 14.8802 254.88C48.7245 221.036 91.8448 197.988 138.788 188.65C185.732 179.312 234.39 184.105 278.609 202.421C322.829 220.738 360.624 251.755 387.216 291.552C413.807 331.349 428 378.137 428 426L186 426L186 668Z"/>
</mask>
<path d="M186 668C138.137 668 91.3487 653.807 51.552 627.216C11.7553 600.624 -19.2625 562.829 -37.5789 518.609C-55.8953 474.39 -60.6877 425.732 -51.35 378.788C-42.0124 331.845 -18.9641 288.724 14.8802 254.88C48.7245 221.036 91.8448 197.988 138.788 188.65C185.732 179.312 234.39 184.105 278.609 202.421C322.829 220.738 360.624 251.755 387.216 291.552C413.807 331.349 428 378.137 428 426L186 426L186 668Z" stroke="#FFE6C0" stroke-width="6" mask="url(#path-4-inside-2_1_463)"/>
<mask id="path-5-inside-3_1_463" fill="white">
<path d="M1270 352C1283.13 352 1296.14 354.587 1308.27 359.612C1320.4 364.638 1331.42 372.003 1340.71 381.289C1350 390.575 1357.36 401.599 1362.39 413.732C1367.41 425.864 1370 438.868 1370 452C1370 465.132 1367.41 478.136 1362.39 490.268C1357.36 502.401 1350 513.425 1340.71 522.711C1331.42 531.997 1320.4 539.363 1308.27 544.388C1296.14 549.413 1283.13 552 1270 552L1270 452V352Z"/>
</mask>
<path d="M1270 352C1283.13 352 1296.14 354.587 1308.27 359.612C1320.4 364.638 1331.42 372.003 1340.71 381.289C1350 390.575 1357.36 401.599 1362.39 413.732C1367.41 425.864 1370 438.868 1370 452C1370 465.132 1367.41 478.136 1362.39 490.268C1357.36 502.401 1350 513.425 1340.71 522.711C1331.42 531.997 1320.4 539.363 1308.27 544.388C1296.14 549.413 1283.13 552 1270 552L1270 452V352Z" stroke="#D79127" stroke-width="10" mask="url(#path-5-inside-3_1_463)"/>
<path d="M1246 177C1246 159.23 1253.06 142.189 1265.62 129.624C1278.19 117.059 1295.23 110 1313 110V177L1246 177Z" fill="#FFF5E7"/>
<path d="M1313 95C1323.9 95 1334.69 97.1469 1344.76 101.318C1354.83 105.489 1363.98 111.603 1371.69 119.31C1379.4 127.017 1385.51 136.167 1389.68 146.237C1393.85 156.307 1396 167.1 1396 178C1396 188.9 1393.85 199.693 1389.68 209.763C1385.51 219.833 1379.4 228.983 1371.69 236.69C1363.98 244.397 1354.83 250.511 1344.76 254.682C1334.69 258.853 1323.9 261 1313 261" stroke="#D79127" stroke-width="5"/>
<path d="M1406 452C1406 548.804 1367.54 641.643 1299.09 710.094C1230.64 778.545 1137.8 817 1041 817L1041 452H1406Z" fill="#FFB13D"/>
<mask id="path-9-inside-4_1_463" fill="white">
<path d="M1270 335C1285.5 335 1300.84 338.052 1315.16 343.982C1329.47 349.912 1342.48 358.604 1353.44 369.561C1364.4 380.519 1373.09 393.527 1379.02 407.843C1384.95 422.16 1388 437.504 1388 453C1388 468.496 1384.95 483.84 1379.02 498.157C1373.09 512.473 1364.4 525.481 1353.44 536.439C1342.48 547.396 1329.47 556.088 1315.16 562.018C1300.84 567.948 1285.5 571 1270 571L1270 453V335Z"/>
</mask>
<path d="M1270 335C1285.5 335 1300.84 338.052 1315.16 343.982C1329.47 349.912 1342.48 358.604 1353.44 369.561C1364.4 380.519 1373.09 393.527 1379.02 407.843C1384.95 422.16 1388 437.504 1388 453C1388 468.496 1384.95 483.84 1379.02 498.157C1373.09 512.473 1364.4 525.481 1353.44 536.439C1342.48 547.396 1329.47 556.088 1315.16 562.018C1300.84 567.948 1285.5 571 1270 571L1270 453V335Z" stroke="white" stroke-width="6" mask="url(#path-9-inside-4_1_463)"/>
<path d="M1270 370C1280.9 370 1291.69 372.147 1301.76 376.318C1311.83 380.489 1320.98 386.603 1328.69 394.31C1336.4 402.017 1342.51 411.167 1346.68 421.237C1350.85 431.307 1353 442.1 1353 453C1353 463.9 1350.85 474.693 1346.68 484.763C1342.51 494.833 1336.4 503.983 1328.69 511.69C1320.98 519.397 1311.83 525.511 1301.76 529.682C1291.69 533.853 1280.9 536 1270 536L1270 453V370Z" fill="#FFCA79"/>
</svg>
