<svg width="24" height="24" viewBox="0 0 24 24" fill="none" xmlns="http://www.w3.org/2000/svg">
<path d="M11.999 7.3811C10.7726 7.3811 9.59651 7.86827 8.72934 8.73544C7.86217 9.60261 7.375 10.7787 7.375 12.0051C7.375 13.2315 7.86217 14.4076 8.72934 15.2748C9.59651 16.1419 10.7726 16.6291 11.999 16.6291C13.2254 16.6291 14.4015 16.1419 15.2687 15.2748C16.1358 14.4076 16.623 13.2315 16.623 12.0051C16.623 10.7787 16.1358 9.60261 15.2687 8.73544C14.4015 7.86827 13.2254 7.3811 11.999 7.3811ZM11.999 15.0081C11.6045 15.0081 11.2139 14.9304 10.8494 14.7794C10.485 14.6285 10.1538 14.4072 9.87485 14.1283C9.5959 13.8493 9.37463 13.5181 9.22367 13.1537C9.0727 12.7892 8.995 12.3986 8.995 12.0041C8.995 11.6096 9.0727 11.219 9.22367 10.8545C9.37463 10.4901 9.5959 10.1589 9.87485 9.87996C10.1538 9.60101 10.485 9.37973 10.8494 9.22877C11.2139 9.0778 11.6045 9.0001 11.999 9.0001C12.7957 9.0001 13.5598 9.3166 14.1231 9.87996C14.6865 10.4433 15.003 11.2074 15.003 12.0041C15.003 12.8008 14.6865 13.5649 14.1231 14.1283C13.5598 14.6916 12.7957 15.0081 11.999 15.0081Z" fill="#1C1C1C"/>
<path d="M11.999 7.3811C10.7726 7.3811 9.59651 7.86827 8.72934 8.73544C7.86217 9.60261 7.375 10.7787 7.375 12.0051C7.375 13.2315 7.86217 14.4076 8.72934 15.2748C9.59651 16.1419 10.7726 16.6291 11.999 16.6291C13.2254 16.6291 14.4015 16.1419 15.2687 15.2748C16.1358 14.4076 16.623 13.2315 16.623 12.0051C16.623 10.7787 16.1358 9.60261 15.2687 8.73544C14.4015 7.86827 13.2254 7.3811 11.999 7.3811ZM11.999 15.0081C11.6045 15.0081 11.2139 14.9304 10.8494 14.7794C10.485 14.6285 10.1538 14.4072 9.87485 14.1283C9.5959 13.8493 9.37463 13.5181 9.22367 13.1537C9.0727 12.7892 8.995 12.3986 8.995 12.0041C8.995 11.6096 9.0727 11.219 9.22367 10.8545C9.37463 10.4901 9.5959 10.1589 9.87485 9.87996C10.1538 9.60101 10.485 9.37973 10.8494 9.22877C11.2139 9.0778 11.6045 9.0001 11.999 9.0001C12.7957 9.0001 13.5598 9.3166 14.1231 9.87996C14.6865 10.4433 15.003 11.2074 15.003 12.0041C15.003 12.8008 14.6865 13.5649 14.1231 14.1283C13.5598 14.6916 12.7957 15.0081 11.999 15.0081Z" fill="black" fill-opacity="0.2"/>
<path d="M16.8065 8.2871C17.4019 8.2871 17.8845 7.80447 17.8845 7.2091C17.8845 6.61374 17.4019 6.1311 16.8065 6.1311C16.2112 6.1311 15.7285 6.61374 15.7285 7.2091C15.7285 7.80447 16.2112 8.2871 16.8065 8.2871Z" fill="#1C1C1C"/>
<path d="M16.8065 8.2871C17.4019 8.2871 17.8845 7.80447 17.8845 7.2091C17.8845 6.61374 17.4019 6.1311 16.8065 6.1311C16.2112 6.1311 15.7285 6.61374 15.7285 7.2091C15.7285 7.80447 16.2112 8.2871 16.8065 8.2871Z" fill="black" fill-opacity="0.2"/>
<path d="M20.533 6.1121C20.3015 5.51428 19.9477 4.97139 19.4943 4.51816C19.0409 4.06494 18.4979 3.71137 17.9 3.4801C17.2003 3.21746 16.4611 3.07544 15.714 3.0601C14.751 3.0181 14.446 3.0061 12.004 3.0061C9.56195 3.0061 9.24895 3.0061 8.29395 3.0601C7.54734 3.07466 6.80871 3.2167 6.10995 3.4801C5.51189 3.7111 4.96872 4.06457 4.51529 4.51783C4.06186 4.97109 3.70818 5.51413 3.47695 6.1121C3.21426 6.81172 3.07257 7.55094 3.05795 8.2981C3.01495 9.2601 3.00195 9.5651 3.00195 12.0081C3.00195 14.4501 3.00195 14.7611 3.05795 15.7181C3.07295 16.4661 3.21395 17.2041 3.47695 17.9051C3.70883 18.5029 4.06285 19.0457 4.51639 19.4989C4.96993 19.9521 5.51302 20.3057 6.11095 20.5371C6.80839 20.8103 7.54732 20.9625 8.29595 20.9871C9.25895 21.0291 9.56395 21.0421 12.006 21.0421C14.448 21.0421 14.761 21.0421 15.716 20.9871C16.4631 20.9719 17.2022 20.8302 17.902 20.5681C18.4997 20.3363 19.0426 19.9824 19.4959 19.5291C19.9493 19.0757 20.3031 18.5329 20.535 17.9351C20.798 17.2351 20.939 16.4971 20.954 15.7491C20.997 14.7871 21.01 14.4821 21.01 12.0391C21.01 9.5961 21.01 9.2861 20.954 8.3291C20.9423 7.57138 20.7999 6.82135 20.533 6.1121ZM19.315 15.6441C19.3085 16.2204 19.2033 16.7913 19.004 17.3321C18.8538 17.721 18.6239 18.0741 18.329 18.3688C18.0342 18.6635 17.6809 18.8932 17.292 19.0431C16.7572 19.2416 16.1923 19.3467 15.622 19.3541C14.672 19.3981 14.404 19.4091 11.968 19.4091C9.52995 19.4091 9.28095 19.4091 8.31295 19.3541C7.74288 19.3471 7.17828 19.2419 6.64395 19.0431C6.25364 18.8941 5.89895 18.6648 5.60284 18.3701C5.30673 18.0753 5.07579 17.7217 4.92495 17.3321C4.7284 16.7972 4.62326 16.2329 4.61395 15.6631C4.57095 14.7131 4.56095 14.4451 4.56095 12.0091C4.56095 9.5721 4.56095 9.3231 4.61395 8.3541C4.62042 7.77813 4.72561 7.20752 4.92495 6.6671C5.22995 5.8781 5.85495 5.2571 6.64395 4.9551C7.17854 4.75724 7.74298 4.65207 8.31295 4.6441C9.26395 4.6011 9.53095 4.5891 11.968 4.5891C14.405 4.5891 14.655 4.5891 15.622 4.6441C16.1924 4.65097 16.7573 4.75617 17.292 4.9551C17.6809 5.10538 18.0341 5.33531 18.3289 5.63013C18.6238 5.92496 18.8537 6.27817 19.004 6.6671C19.2005 7.20205 19.3056 7.76626 19.315 8.3361C19.358 9.2871 19.369 9.5541 19.369 11.9911C19.369 14.4271 19.369 14.6891 19.326 15.6451L19.315 15.6441Z" fill="#1C1C1C"/>
<path d="M20.533 6.1121C20.3015 5.51428 19.9477 4.97139 19.4943 4.51816C19.0409 4.06494 18.4979 3.71137 17.9 3.4801C17.2003 3.21746 16.4611 3.07544 15.714 3.0601C14.751 3.0181 14.446 3.0061 12.004 3.0061C9.56195 3.0061 9.24895 3.0061 8.29395 3.0601C7.54734 3.07466 6.80871 3.2167 6.10995 3.4801C5.51189 3.7111 4.96872 4.06457 4.51529 4.51783C4.06186 4.97109 3.70818 5.51413 3.47695 6.1121C3.21426 6.81172 3.07257 7.55094 3.05795 8.2981C3.01495 9.2601 3.00195 9.5651 3.00195 12.0081C3.00195 14.4501 3.00195 14.7611 3.05795 15.7181C3.07295 16.4661 3.21395 17.2041 3.47695 17.9051C3.70883 18.5029 4.06285 19.0457 4.51639 19.4989C4.96993 19.9521 5.51302 20.3057 6.11095 20.5371C6.80839 20.8103 7.54732 20.9625 8.29595 20.9871C9.25895 21.0291 9.56395 21.0421 12.006 21.0421C14.448 21.0421 14.761 21.0421 15.716 20.9871C16.4631 20.9719 17.2022 20.8302 17.902 20.5681C18.4997 20.3363 19.0426 19.9824 19.4959 19.5291C19.9493 19.0757 20.3031 18.5329 20.535 17.9351C20.798 17.2351 20.939 16.4971 20.954 15.7491C20.997 14.7871 21.01 14.4821 21.01 12.0391C21.01 9.5961 21.01 9.2861 20.954 8.3291C20.9423 7.57138 20.7999 6.82135 20.533 6.1121ZM19.315 15.6441C19.3085 16.2204 19.2033 16.7913 19.004 17.3321C18.8538 17.721 18.6239 18.0741 18.329 18.3688C18.0342 18.6635 17.6809 18.8932 17.292 19.0431C16.7572 19.2416 16.1923 19.3467 15.622 19.3541C14.672 19.3981 14.404 19.4091 11.968 19.4091C9.52995 19.4091 9.28095 19.4091 8.31295 19.3541C7.74288 19.3471 7.17828 19.2419 6.64395 19.0431C6.25364 18.8941 5.89895 18.6648 5.60284 18.3701C5.30673 18.0753 5.07579 17.7217 4.92495 17.3321C4.7284 16.7972 4.62326 16.2329 4.61395 15.6631C4.57095 14.7131 4.56095 14.4451 4.56095 12.0091C4.56095 9.5721 4.56095 9.3231 4.61395 8.3541C4.62042 7.77813 4.72561 7.20752 4.92495 6.6671C5.22995 5.8781 5.85495 5.2571 6.64395 4.9551C7.17854 4.75724 7.74298 4.65207 8.31295 4.6441C9.26395 4.6011 9.53095 4.5891 11.968 4.5891C14.405 4.5891 14.655 4.5891 15.622 4.6441C16.1924 4.65097 16.7573 4.75617 17.292 4.9551C17.6809 5.10538 18.0341 5.33531 18.3289 5.63013C18.6238 5.92496 18.8537 6.27817 19.004 6.6671C19.2005 7.20205 19.3056 7.76626 19.315 8.3361C19.358 9.2871 19.369 9.5541 19.369 11.9911C19.369 14.4271 19.369 14.6891 19.326 15.6451L19.315 15.6441Z" fill="black" fill-opacity="0.2"/>
</svg>
