<svg width="20" height="28" viewBox="0 0 20 28" fill="none" xmlns="http://www.w3.org/2000/svg">
<path d="M0.0193837 7.25325C1.50593 -0.596034 12.9028 -0.670725 18.1553 0.637486C9.13682 2.65583 7.22095 7.70183 7.25398 9.94447C7.35309 11.2122 8.85945 13.9962 14.0921 14.9904C19.3247 15.9847 19.939 19.2514 18.948 21.4941C14.6866 29.5676 5.23889 28.4837 1.0105 26.8765C3.45504 26.3158 8.87927 24.3198 11.0199 20.8213C13.6957 16.4482 10.9208 14.654 5.47013 13.0842C1.10961 11.8283 -0.178885 10.0565 0.0193837 7.25325Z" fill="#1C1C1C"/>
<path d="M0.0193837 7.25325C1.50593 -0.596034 12.9028 -0.670725 18.1553 0.637486C9.13682 2.65583 7.22095 7.70183 7.25398 9.94447C7.35309 11.2122 8.85945 13.9962 14.0921 14.9904C19.3247 15.9847 19.939 19.2514 18.948 21.4941C14.6866 29.5676 5.23889 28.4837 1.0105 26.8765C3.45504 26.3158 8.87927 24.3198 11.0199 20.8213C13.6957 16.4482 10.9208 14.654 5.47013 13.0842C1.10961 11.8283 -0.178885 10.0565 0.0193837 7.25325Z" fill="black" fill-opacity="0.2"/>
<ellipse cx="13.8945" cy="8.93382" rx="2.67578" ry="3.02757" fill="#1C1C1C"/>
<ellipse cx="13.8945" cy="8.93382" rx="2.67578" ry="3.02757" fill="black" fill-opacity="0.2"/>
<ellipse cx="5.37109" cy="18.801" rx="2.67578" ry="3.02757" fill="#1C1C1C"/>
<ellipse cx="5.37109" cy="18.801" rx="2.67578" ry="3.02757" fill="black" fill-opacity="0.2"/>
</svg>
