<svg width="24" height="24" viewBox="0 0 24 24" fill="none" xmlns="http://www.w3.org/2000/svg">
<path d="M12 2.0022C6.48 2.0022 2 6.4822 2 12.0022C2 17.5222 6.48 22.0022 12 22.0022C17.52 22.0022 22 17.5222 22 12.0022C22 6.4822 17.52 2.0022 12 2.0022ZM16.64 8.8022C16.49 10.3822 15.84 14.2222 15.51 15.9922C15.37 16.7422 15.09 16.9922 14.83 17.0222C14.25 17.0722 13.81 16.6422 13.25 16.2722C12.37 15.6922 11.87 15.3322 11.02 14.7722C10.03 14.1222 10.67 13.7622 11.24 13.1822C11.39 13.0322 13.95 10.7022 14 10.4922C14.0069 10.4604 14.006 10.4274 13.9973 10.396C13.9886 10.3646 13.9724 10.3359 13.95 10.3122C13.89 10.2622 13.81 10.2822 13.74 10.2922C13.65 10.3122 12.25 11.2422 9.52 13.0822C9.12 13.3522 8.76 13.4922 8.44 13.4822C8.08 13.4722 7.4 13.2822 6.89 13.1122C6.26 12.9122 5.77 12.8022 5.81 12.4522C5.83 12.2722 6.08 12.0922 6.55 11.9022C9.47 10.6322 11.41 9.7922 12.38 9.3922C15.16 8.2322 15.73 8.0322 16.11 8.0322C16.19 8.0322 16.38 8.0522 16.5 8.1522C16.6 8.2322 16.63 8.3422 16.64 8.4222C16.63 8.4822 16.65 8.6622 16.64 8.8022Z" fill="#1C1C1C"/>
<path d="M12 2.0022C6.48 2.0022 2 6.4822 2 12.0022C2 17.5222 6.48 22.0022 12 22.0022C17.52 22.0022 22 17.5222 22 12.0022C22 6.4822 17.52 2.0022 12 2.0022ZM16.64 8.8022C16.49 10.3822 15.84 14.2222 15.51 15.9922C15.37 16.7422 15.09 16.9922 14.83 17.0222C14.25 17.0722 13.81 16.6422 13.25 16.2722C12.37 15.6922 11.87 15.3322 11.02 14.7722C10.03 14.1222 10.67 13.7622 11.24 13.1822C11.39 13.0322 13.95 10.7022 14 10.4922C14.0069 10.4604 14.006 10.4274 13.9973 10.396C13.9886 10.3646 13.9724 10.3359 13.95 10.3122C13.89 10.2622 13.81 10.2822 13.74 10.2922C13.65 10.3122 12.25 11.2422 9.52 13.0822C9.12 13.3522 8.76 13.4922 8.44 13.4822C8.08 13.4722 7.4 13.2822 6.89 13.1122C6.26 12.9122 5.77 12.8022 5.81 12.4522C5.83 12.2722 6.08 12.0922 6.55 11.9022C9.47 10.6322 11.41 9.7922 12.38 9.3922C15.16 8.2322 15.73 8.0322 16.11 8.0322C16.19 8.0322 16.38 8.0522 16.5 8.1522C16.6 8.2322 16.63 8.3422 16.64 8.4222C16.63 8.4822 16.65 8.6622 16.64 8.8022Z" fill="black" fill-opacity="0.2"/>
</svg>
