<svg width="179" height="176" viewBox="0 0 179 176" fill="none" xmlns="http://www.w3.org/2000/svg">
<rect y="210.086" width="297.104" height="53.5575" transform="rotate(-45 0 210.086)" fill="#1C1C1C"/>
<rect y="210.086" width="297.104" height="53.5575" transform="rotate(-45 0 210.086)" fill="black" fill-opacity="0.2"/>
<path d="M80.794 168.698L74.6229 162.527L76.9853 160.164C77.4312 159.718 77.8722 159.418 78.3081 159.263C78.744 159.105 79.1558 159.072 79.5435 159.167C79.9332 159.259 80.2807 159.458 80.5861 159.763C80.8372 160.015 81.0039 160.278 81.0863 160.553C81.1666 160.826 81.1807 161.099 81.1285 161.373C81.0762 161.646 80.9738 161.907 80.8211 162.156L80.8814 162.216C81.1124 162.009 81.3896 161.867 81.713 161.788C82.0365 161.706 82.3729 161.711 82.7225 161.803C83.072 161.896 83.4035 162.099 83.7168 162.412C84.0363 162.732 84.2462 163.096 84.3466 163.506C84.445 163.914 84.4119 164.347 84.2472 164.805C84.0825 165.263 83.7641 165.728 83.292 166.2L80.794 168.698ZM80.9778 166.646L82.1801 165.443C82.5859 165.038 82.8008 164.668 82.8249 164.335C82.849 163.997 82.7385 163.706 82.4935 163.461C82.3107 163.278 82.1007 163.158 81.8637 163.102C81.6247 163.044 81.3796 163.056 81.1285 163.138C80.8754 163.219 80.6333 163.374 80.4023 163.605L79.1699 164.838L80.9778 166.646ZM78.3653 164.033L79.4712 162.927C79.664 162.735 79.8026 162.526 79.887 162.301C79.9694 162.074 79.9895 161.851 79.9473 161.632C79.9051 161.409 79.7936 161.207 79.6128 161.026C79.3738 160.787 79.0925 160.674 78.7691 160.689C78.4477 160.701 78.1223 160.871 77.7928 161.201L76.6629 162.331L78.3653 164.033ZM87.1632 162.329L85.97 163.522L81.9714 155.178L83.3515 153.798L91.6982 157.794L90.5049 158.987L83.9511 155.73L83.9029 155.778L87.1632 162.329ZM84.7828 159.87L88.0371 156.615L88.935 157.513L85.6807 160.768L84.7828 159.87ZM96.2082 153.284L91.4805 152.618L90.932 153.166L93.6289 155.863L92.511 156.981L86.3399 150.81L87.4578 149.692L89.9949 152.229L90.2752 151.949L89.9317 147.218L91.3087 145.841L91.6854 151.093L97.5853 151.906L96.2082 153.284ZM99.1371 150.355L97.9439 151.548L93.9453 143.204L95.3254 141.824L103.672 145.82L102.479 147.013L95.925 143.756L95.8768 143.804L99.1371 150.355ZM96.7566 147.896L100.011 144.642L100.909 145.54L97.6546 148.794L96.7566 147.896ZM104.485 145.007L98.3137 138.836L99.4316 137.718L102.044 140.33L104.904 137.471L102.291 134.858L103.412 133.737L109.583 139.909L108.462 141.029L105.841 138.408L102.981 141.267L105.603 143.889L104.485 145.007ZM111.992 129.321L110.865 130.448C110.648 130.296 110.425 130.191 110.196 130.135C109.965 130.077 109.735 130.062 109.506 130.09C109.277 130.118 109.055 130.189 108.84 130.304C108.626 130.414 108.424 130.564 108.235 130.753C107.899 131.088 107.686 131.47 107.596 131.898C107.504 132.324 107.546 132.772 107.723 133.242C107.897 133.71 108.217 134.176 108.681 134.64C109.153 135.112 109.624 135.436 110.094 135.613C110.564 135.786 111.01 135.826 111.432 135.734C111.854 135.637 112.231 135.422 112.565 135.089C112.75 134.904 112.898 134.707 113.011 134.498C113.123 134.285 113.196 134.066 113.228 133.841C113.262 133.614 113.253 133.386 113.201 133.157C113.15 132.926 113.052 132.703 112.905 132.488L114.038 131.367C114.289 131.703 114.473 132.07 114.59 132.467C114.708 132.863 114.753 133.272 114.725 133.694C114.695 134.114 114.585 134.529 114.394 134.941C114.201 135.351 113.921 135.74 113.553 136.107C113.011 136.65 112.401 137.008 111.724 137.183C111.047 137.358 110.349 137.331 109.63 137.102C108.911 136.873 108.22 136.427 107.557 135.764C106.892 135.099 106.447 134.407 106.222 133.688C105.995 132.967 105.969 132.267 106.144 131.59C106.318 130.913 106.675 130.306 107.213 129.767C107.557 129.424 107.924 129.153 108.316 128.954C108.708 128.755 109.113 128.633 109.531 128.589C109.946 128.543 110.363 128.58 110.781 128.701C111.199 128.817 111.603 129.024 111.992 129.321ZM110.934 126.216L112.043 125.107L116.249 129.313L116.307 129.256L115.002 122.148L116.005 121.144L122.176 127.315L121.058 128.433L116.855 124.23L116.804 124.281L118.096 131.395L117.105 132.387L110.934 126.216ZM127.95 121.541L126.83 122.662L121.593 117.425L120.568 118.45C120.291 118.727 120.104 118.996 120.008 119.257C119.911 119.514 119.898 119.765 119.968 120.008C120.039 120.247 120.183 120.476 120.402 120.695C120.621 120.914 120.848 121.056 121.083 121.122C121.316 121.187 121.56 121.17 121.815 121.071C122.071 120.969 122.336 120.78 122.611 120.505L124.112 119.004L125.04 119.932L123.388 121.583C122.914 122.058 122.436 122.379 121.954 122.548C121.47 122.714 120.999 122.738 120.541 122.617C120.083 122.492 119.656 122.232 119.26 121.837C118.867 121.443 118.604 121.016 118.474 120.556C118.343 120.092 118.357 119.616 118.516 119.128C118.675 118.64 118.99 118.159 119.462 117.687L121.779 115.37L127.95 121.541ZM121.963 121.936L123.183 120.716L124.479 125.013L123.232 126.26L121.963 121.936ZM133.505 116.155C133.071 116.589 132.611 116.9 132.125 117.089C131.641 117.276 131.169 117.334 130.709 117.264C130.249 117.194 129.839 116.991 129.48 116.655L130.613 115.522C130.789 115.679 130.99 115.769 131.215 115.794C131.438 115.816 131.667 115.777 131.902 115.679C132.137 115.581 132.358 115.428 132.565 115.221C132.786 115 132.944 114.766 133.038 114.519C133.131 114.27 133.156 114.028 133.114 113.793C133.071 113.558 132.959 113.351 132.776 113.172C132.591 112.983 132.378 112.867 132.137 112.823C131.896 112.778 131.642 112.809 131.375 112.916C131.11 113.02 130.847 113.203 130.586 113.464L130.04 114.01L129.178 113.148L129.724 112.603C129.939 112.388 130.089 112.163 130.176 111.928C130.264 111.691 130.287 111.459 130.245 111.232C130.201 111.003 130.088 110.8 129.908 110.623C129.735 110.446 129.544 110.334 129.335 110.285C129.126 110.233 128.913 110.243 128.696 110.315C128.481 110.386 128.277 110.517 128.085 110.71C127.896 110.899 127.755 111.108 127.663 111.337C127.57 111.566 127.538 111.793 127.566 112.018C127.592 112.241 127.689 112.442 127.856 112.621L126.78 113.696C126.442 113.343 126.238 112.94 126.168 112.488C126.098 112.032 126.15 111.57 126.325 111.102C126.498 110.632 126.784 110.197 127.184 109.797C127.595 109.385 128.03 109.105 128.488 108.957C128.946 108.804 129.388 108.774 129.814 108.866C130.24 108.959 130.61 109.161 130.923 109.475C131.273 109.82 131.461 110.214 131.489 110.656C131.52 111.096 131.404 111.519 131.143 111.925L131.191 111.973C131.685 111.599 132.179 111.427 132.671 111.458C133.163 111.484 133.601 111.691 133.984 112.078C134.33 112.424 134.541 112.832 134.617 113.302C134.694 113.768 134.637 114.25 134.448 114.748C134.262 115.244 133.947 115.713 133.505 116.155ZM137.586 111.906L136.393 113.099L132.394 104.755L133.774 103.375L142.121 107.371L140.928 108.564L134.374 105.307L134.326 105.355L137.586 111.906ZM135.206 109.447L138.46 106.193L139.358 107.091L136.104 110.345L135.206 109.447ZM146.631 102.861L141.903 102.195L141.355 102.743L144.052 105.44L142.934 106.558L136.763 100.387L137.881 99.269L140.418 101.806L140.698 101.526L140.354 96.7951L141.731 95.418L142.108 100.67L148.008 101.484L146.631 102.861ZM148.767 100.724L142.596 94.5532L144.91 92.2391C145.385 91.765 145.871 91.4556 146.369 91.311C146.869 91.1643 147.356 91.1633 147.83 91.308C148.304 91.4486 148.737 91.7148 149.129 92.1065C149.525 92.5022 149.793 92.9371 149.934 93.4112C150.074 93.8853 150.07 94.3734 149.921 94.8757C149.771 95.3759 149.457 95.864 148.981 96.3401L147.448 97.8738L146.529 96.9548L147.912 95.5717C148.189 95.2945 148.368 95.0193 148.448 94.7461C148.528 94.4729 148.526 94.2097 148.442 93.9566C148.36 93.7015 148.209 93.4645 147.99 93.2455C147.771 93.0265 147.535 92.8769 147.282 92.7965C147.031 92.7142 146.77 92.7162 146.498 92.8025C146.227 92.8849 145.952 93.0657 145.673 93.3449L144.648 94.3694L149.885 99.6064L148.767 100.724ZM151.197 90.7196L152.764 89.1528C153.236 88.6807 153.718 88.3532 154.21 88.1704C154.702 87.9836 155.178 87.9394 155.638 88.0379C156.098 88.1363 156.517 88.3743 156.895 88.752C157.275 89.1317 157.519 89.5565 157.627 90.0266C157.734 90.4947 157.698 90.9798 157.522 91.482C157.347 91.9822 157.023 92.4683 156.551 92.9404L154.24 95.2516L148.069 89.0804L149.19 87.9595L154.445 93.2146L155.635 92.0244C155.884 91.7753 156.048 91.5171 156.126 91.25C156.205 90.9828 156.211 90.7277 156.145 90.4846C156.08 90.2395 155.958 90.0266 155.777 89.8458C155.516 89.5847 155.193 89.4631 154.81 89.4812C154.426 89.4953 154.047 89.6891 153.674 90.0628L152.107 91.6296L151.197 90.7196ZM154.3 82.8491L160.472 89.0202L159.351 90.1411L153.18 83.97L154.3 82.8491ZM156.181 82.843L155.244 81.9059L160.167 76.9823L161.104 77.9194L159.197 79.8268L164.431 85.0608L163.322 86.1697L158.088 80.9357L156.181 82.843ZM167.334 82.1575L166.141 83.3508L162.142 75.0071L163.522 73.627L171.869 77.6226L170.676 78.8158L164.122 75.5585L164.074 75.6067L167.334 82.1575ZM164.954 79.6987L168.208 76.4444L169.106 77.3424L165.852 80.5967L164.954 79.6987Z" fill="white"/>
</svg>
