<svg width="24" height="24" viewBox="0 0 24 24" fill="none" xmlns="http://www.w3.org/2000/svg">
<path d="M12.002 2.0022C17.525 2.0022 22.002 6.4792 22.002 12.0022C22.002 17.5252 17.525 22.0022 12.002 22.0022C10.2347 22.005 8.49862 21.5374 6.97197 20.6472L2.00597 22.0022L3.35797 17.0342C2.46706 15.5071 1.99901 13.7702 2.00197 12.0022C2.00197 6.4792 6.47897 2.0022 12.002 2.0022ZM8.59397 7.3022L8.39397 7.3102C8.26449 7.31808 8.13795 7.3521 8.02197 7.4102C7.91349 7.47163 7.81446 7.54842 7.72797 7.6382C7.60797 7.7512 7.53997 7.8492 7.46697 7.9442C7.09709 8.4251 6.89794 9.01551 6.90097 9.6222C6.90297 10.1122 7.03097 10.5892 7.23097 11.0352C7.63997 11.9372 8.31297 12.8922 9.20097 13.7772C9.41497 13.9902 9.62497 14.2042 9.85097 14.4032C10.9544 15.3747 12.2692 16.0752 13.691 16.4492L14.259 16.5362C14.444 16.5462 14.629 16.5322 14.815 16.5232C15.1062 16.5082 15.3906 16.4293 15.648 16.2922C15.7789 16.2247 15.9067 16.1513 16.031 16.0722C16.031 16.0722 16.074 16.0442 16.156 15.9822C16.291 15.8822 16.374 15.8112 16.486 15.6942C16.569 15.6082 16.641 15.5072 16.696 15.3922C16.774 15.2292 16.852 14.9182 16.884 14.6592C16.908 14.4612 16.901 14.3532 16.898 14.2862C16.894 14.1792 16.805 14.0682 16.708 14.0212L16.126 13.7602C16.126 13.7602 15.256 13.3812 14.724 13.1392C14.6683 13.1149 14.6086 13.101 14.548 13.0982C14.4795 13.0912 14.4104 13.0989 14.3452 13.1208C14.28 13.1427 14.2203 13.1783 14.17 13.2252C14.165 13.2232 14.098 13.2802 13.375 14.1562C13.3335 14.212 13.2763 14.2541 13.2108 14.2773C13.1452 14.3004 13.0743 14.3035 13.007 14.2862C12.9418 14.2687 12.878 14.2467 12.816 14.2202C12.692 14.1682 12.649 14.1482 12.564 14.1122C11.99 13.8617 11.4587 13.5233 10.989 13.1092C10.863 12.9992 10.746 12.8792 10.626 12.7632C10.2326 12.3864 9.88969 11.9602 9.60597 11.4952L9.54697 11.4002C9.50459 11.3364 9.47033 11.2675 9.44497 11.1952C9.40697 11.0482 9.50597 10.9302 9.50597 10.9302C9.50597 10.9302 9.74897 10.6642 9.86197 10.5202C9.97197 10.3802 10.065 10.2442 10.125 10.1472C10.243 9.9572 10.28 9.7622 10.218 9.6112C9.93797 8.9272 9.64797 8.2462 9.34997 7.5702C9.29097 7.4362 9.11597 7.3402 8.95697 7.3212C8.90297 7.3152 8.84897 7.3092 8.79497 7.3052C8.66067 7.29853 8.5261 7.29986 8.39197 7.3092L8.59397 7.3022Z" fill="#1C1C1C"/>
<path d="M12.002 2.0022C17.525 2.0022 22.002 6.4792 22.002 12.0022C22.002 17.5252 17.525 22.0022 12.002 22.0022C10.2347 22.005 8.49862 21.5374 6.97197 20.6472L2.00597 22.0022L3.35797 17.0342C2.46706 15.5071 1.99901 13.7702 2.00197 12.0022C2.00197 6.4792 6.47897 2.0022 12.002 2.0022ZM8.59397 7.3022L8.39397 7.3102C8.26449 7.31808 8.13795 7.3521 8.02197 7.4102C7.91349 7.47163 7.81446 7.54842 7.72797 7.6382C7.60797 7.7512 7.53997 7.8492 7.46697 7.9442C7.09709 8.4251 6.89794 9.01551 6.90097 9.6222C6.90297 10.1122 7.03097 10.5892 7.23097 11.0352C7.63997 11.9372 8.31297 12.8922 9.20097 13.7772C9.41497 13.9902 9.62497 14.2042 9.85097 14.4032C10.9544 15.3747 12.2692 16.0752 13.691 16.4492L14.259 16.5362C14.444 16.5462 14.629 16.5322 14.815 16.5232C15.1062 16.5082 15.3906 16.4293 15.648 16.2922C15.7789 16.2247 15.9067 16.1513 16.031 16.0722C16.031 16.0722 16.074 16.0442 16.156 15.9822C16.291 15.8822 16.374 15.8112 16.486 15.6942C16.569 15.6082 16.641 15.5072 16.696 15.3922C16.774 15.2292 16.852 14.9182 16.884 14.6592C16.908 14.4612 16.901 14.3532 16.898 14.2862C16.894 14.1792 16.805 14.0682 16.708 14.0212L16.126 13.7602C16.126 13.7602 15.256 13.3812 14.724 13.1392C14.6683 13.1149 14.6086 13.101 14.548 13.0982C14.4795 13.0912 14.4104 13.0989 14.3452 13.1208C14.28 13.1427 14.2203 13.1783 14.17 13.2252C14.165 13.2232 14.098 13.2802 13.375 14.1562C13.3335 14.212 13.2763 14.2541 13.2108 14.2773C13.1452 14.3004 13.0743 14.3035 13.007 14.2862C12.9418 14.2687 12.878 14.2467 12.816 14.2202C12.692 14.1682 12.649 14.1482 12.564 14.1122C11.99 13.8617 11.4587 13.5233 10.989 13.1092C10.863 12.9992 10.746 12.8792 10.626 12.7632C10.2326 12.3864 9.88969 11.9602 9.60597 11.4952L9.54697 11.4002C9.50459 11.3364 9.47033 11.2675 9.44497 11.1952C9.40697 11.0482 9.50597 10.9302 9.50597 10.9302C9.50597 10.9302 9.74897 10.6642 9.86197 10.5202C9.97197 10.3802 10.065 10.2442 10.125 10.1472C10.243 9.9572 10.28 9.7622 10.218 9.6112C9.93797 8.9272 9.64797 8.2462 9.34997 7.5702C9.29097 7.4362 9.11597 7.3402 8.95697 7.3212C8.90297 7.3152 8.84897 7.3092 8.79497 7.3052C8.66067 7.29853 8.5261 7.29986 8.39197 7.3092L8.59397 7.3022Z" fill="black" fill-opacity="0.2"/>
</svg>
